<?xml version="1.0" encoding="UTF-8" standalone="no"?>
<!-- Created with Inkscape (http://www.inkscape.org/) -->

<svg
   width="22.5in"
   height="18in"
   viewBox="0 0 571.5 457.2"
   version="1.1"
   id="svg1"
   xml:space="preserve"
   inkscape:version="1.4 (86a8ad7, 2024-10-11)"
   sodipodi:docname="logo del sitio.svg"
   xmlns:inkscape="http://www.inkscape.org/namespaces/inkscape"
   xmlns:sodipodi="http://sodipodi.sourceforge.net/DTD/sodipodi-0.dtd"
   xmlns="http://www.w3.org/2000/svg"
   xmlns:svg="http://www.w3.org/2000/svg"><sodipodi:namedview
     id="namedview1"
     pagecolor="#ffffff"
     bordercolor="#000000"
     borderopacity="0.25"
     inkscape:showpageshadow="2"
     inkscape:pageopacity="0.0"
     inkscape:pagecheckerboard="0"
     inkscape:deskcolor="#d1d1d1"
     inkscape:document-units="mm"
     inkscape:zoom="0.24632085"
     inkscape:cx="1228.0731"
     inkscape:cy="1256.4913"
     inkscape:window-width="1366"
     inkscape:window-height="745"
     inkscape:window-x="-8"
     inkscape:window-y="-8"
     inkscape:window-maximized="1"
     inkscape:current-layer="layer1" /><defs
     id="defs1" /><g
     inkscape:label="Capa 1"
     inkscape:groupmode="layer"
     id="layer1"><circle
       style="fill:#f2f2f2;fill-opacity:1;stroke:none;stroke-width:0;stroke-dasharray:none;stroke-opacity:1"
       id="path14"
       cx="268.79034"
       cy="223.49207"
       r="120.30379" /><path
       style="fill:none;stroke:#000000;stroke-width:2.08959;stroke-dasharray:none"
       d="m 182.53348,213.5769 86.94556,-28.83001 c 0,0 53.17464,19.00591 88.0008,30.48363 20.41278,6.72747 17.55794,37.4164 -4.485,39.0777 l -170.93349,-1.0741 c -11.17064,0.14344 -18.7645,-32.46817 0.47213,-39.65722 z"
       id="path1"
       sodipodi:nodetypes="ccsccc" /><path
       style="fill:none;stroke:#000000;stroke-width:1.66166;stroke-dasharray:none"
       d="m 283.99693,141.61833 -0.2716,-6.73201 c 0.39242,0 -3.29274,-8.76139 -13.71677,-8.80979 -8.06199,-0.0375 -12.13636,7.9713 -12.49452,9.30846 -0.35817,1.33715 -1.64431,6.58888 2e-5,9.6409 2.16885,4.0256 12.35868,10.22268 12.35868,10.22268 l -0.27163,5.48534"
       id="path2"
       sodipodi:nodetypes="ccszacc" /><path
       style="fill:none;stroke:#000000;stroke-width:2.1;stroke-dasharray:none"
       d="m 269.4648,159.97651 5.79143,2.56343 c 0,0 -12.43121,-0.18421 -9.77897,1.80389 2.26754,1.69973 10.0638,2.65836 10.0638,2.65836 0,0 -13.3991,-1.05782 -10.53852,1.61401 2.20948,2.06368 10.63347,2.37353 10.63347,2.37353 0,0 -13.21786,-1.02679 -10.82333,1.61401 2.63074,2.9013 10.82334,1.89883 10.82334,1.89883 0,0 -13.91058,-0.003 -11.10816,2.56342 2.45194,2.24548 11.20309,2.18366 11.20309,2.18366 0,0 -13.77991,-1.49272 -11.29805,1.42412 2.0585,2.41927 8.54474,5.41167 8.54474,5.41167"
       id="path3"
       sodipodi:nodetypes="ccscscscscsc" /><g
       id="g6"
       transform="matrix(0.30743858,0,0,0.22356231,271.36128,187.50471)"
       style="fill:#ff8080;stroke:none"
       inkscape:transform-center-x="0.43939314"
       inkscape:transform-center-y="-0.74947422"><path
         style="fill:#ff8080;stroke:none;stroke-width:0.8;stroke-dasharray:none"
         d="m -257.30043,148.2098 c 0,0 -0.6903,5.78288 -0.13427,8.59312 0.81328,4.11043 4.06717,7.45486 4.9679,11.54702 1.06832,4.85353 0.40281,14.90371 0.40281,14.90371 l 10.47287,-0.13427 c 0,0 -0.38385,-9.60167 0.67134,-14.23237 0.99361,-4.36046 4.44562,-7.95087 5.23644,-12.35262 0.52287,-2.91035 -0.40281,-8.86167 -0.40281,-8.86167 z"
         id="path4"
         sodipodi:nodetypes="caaccaacc" /><path
         style="fill:#ff8080;stroke:none;stroke-width:0.799999;stroke-dasharray:none"
         d="m -285.49664,250.25319 c 1.30283,-11.82472 7.28107,-25.71463 11.38892,-38.47153 3.67071,-11.39935 20.11949,-28.88055 21.90946,-28.16456 l 10.74141,-0.0949 c 0,0 15.59068,20.14709 21.82046,31.2057 4.64867,8.25195 11.47791,25.99231 11.47791,25.99231 0,0 0.90132,2.7675 0.13427,3.75949 -0.75722,0.97928 -3.62523,0.80561 -3.62523,0.80561 0,0 2.05748,6.46994 0.13427,8.59312 -1.08542,1.1983 -4.83364,0.40281 -4.83364,0.40281 0,0 1.54908,2.55638 0.80561,3.49096 -0.47367,0.59543 -2.28255,0 -2.28255,0 0,0 -0.14858,4.22674 -1.67835,5.23643 -1.59452,1.05243 -5.70637,-0.53706 -5.70637,-0.53706 0,0 -0.26469,5.07341 -2.08115,6.37771 -1.83599,1.31834 -6.78051,-0.0671 -6.78051,-0.0671 0,0 -2.08443,4.97238 -4.3637,5.70639 -3.00529,0.96781 -9.06307,-2.75251 -9.06307,-2.75251 0,0 -1.88882,3.12423 -3.49096,3.42384 -2.72944,0.51043 -7.65325,-3.28956 -7.65325,-3.28956 0,0 -3.25559,1.16561 -4.02803,0.0671 -0.50922,-0.72415 0.93988,-2.48395 0.93988,-2.48395 0,0 -6.75093,0.88271 -8.99594,-1.14128 -1.31429,-1.1849 -1.20841,-5.16931 -1.20841,-5.16931 0,0 -5.47616,0.2758 -7.04905,-1.54407 -1.04152,-1.20506 -0.33567,-4.76651 -0.33567,-4.76651 0,0 -3.72032,1.70274 -4.69937,0.46994 -0.69096,-0.87004 1.07415,-3.15529 1.07415,-3.15529 0,0 -2.72102,-2.35141 -2.55109,-3.89376 z"
         id="path5"
         sodipodi:nodetypes="ssccacacacacacacacacacacacacs" /><path
         style="fill:#ff8080;stroke:none;stroke-width:0.799999;stroke-dasharray:none"
         d="m -245.83422,144.13218 c 0,0 8.23098,-7.17002 11.01322,-4.36731 1.20428,1.21314 2.4912,7.70856 0.37977,7.97509 -6.78515,0.8565 -22.97586,0.56965 -22.97586,0.56965 0,0 -2.28518,-0.82983 -2.65639,-1.84123 -0.80442,-2.19179 -0.25833,-5.68107 1.80867,-6.76668 3.89438,-2.0454 12.43059,4.43048 12.43059,4.43048 z"
         id="path6"
         sodipodi:nodetypes="csscaac" /></g><text
       xml:space="preserve"
       style="font-size:27.4601px;font-family:'Bernard MT Condensed';-inkscape-font-specification:'Bernard MT Condensed, ';text-align:start;writing-mode:lr-tb;direction:ltr;text-anchor:start;fill:#ca727b;fill-opacity:1;stroke:#ca727b;stroke-width:0;stroke-dasharray:none;stroke-opacity:1"
       x="234.36484"
       y="221.07454"
       id="text6"
       transform="scale(0.90217875,1.1084278)"><tspan
         sodipodi:role="line"
         id="tspan6"
         style="fill:#ca727b;fill-opacity:1;stroke:#ca727b;stroke-width:0;stroke-dasharray:none;stroke-opacity:1"
         x="234.36484"
         y="221.07454">CLO   HES SHOP</tspan></text><g
       id="g15"
       transform="matrix(0.98699398,0,0,0.9927868,-14.680681,31.751652)"
       style="fill:#000000;stroke:#000000"><path
         style="fill:#000000;fill-opacity:1;stroke:#000000;stroke-width:0;stroke-dasharray:none;stroke-opacity:1"
         d="m 270.13658,198.07289 3.13722,0.0234 1.66908,15.28762 -3.22997,2.91919 -3.07541,-2.88402 z"
         id="path7" /><path
         style="fill:#000000;fill-opacity:1;stroke:#000000;stroke-width:0;stroke-dasharray:none;stroke-opacity:1"
         d="m 269.55808,194.91953 c 0.93755,-0.78765 3.24435,-0.7279 4.19631,0.0497 0.68033,0.55576 0.54415,1.74443 -0.17485,2.27143 -0.8752,0.64148 -2.73071,0.67136 -3.64991,0.0663 -0.79788,-0.52518 -1.0795,-1.79272 -0.37155,-2.38748 z"
         id="path8"
         sodipodi:nodetypes="aaaaa" /><path
         style="fill:#000000;fill-opacity:1;stroke:#000000;stroke-width:0;stroke-dasharray:none;stroke-opacity:1"
         d="m 265.82075,190.85749 c 0,0 0.1116,0.70541 0.32784,1.01137 0.69191,0.979 2.97238,2.45379 2.97238,2.45379 l -1.68289,3.51491 c -1.92007,-1.35342 -2.5328,-2.74817 -3.08166,-4.14494 0.16018,-1.21868 0.72339,-2.10106 1.46433,-2.83513 z"
         id="path9"
         sodipodi:nodetypes="cacccc" /><path
         style="fill:#000000;fill-opacity:1;stroke:#000000;stroke-width:0;stroke-dasharray:none;stroke-opacity:1"
         d="m 266.21416,190.70828 c 0.1063,0.77924 0.91743,1.55849 1.57361,2.33774 1.99843,-0.2651 3.72455,-0.63614 7.91178,-0.0497 0.62821,-0.69947 1.30338,-1.35738 1.59547,-2.35432 0,0 -3.89276,-0.65188 -5.85735,-0.66319 -1.71922,-0.01 -5.20646,0.71657 -5.22351,0.72951 z"
         id="path10"
         sodipodi:nodetypes="ccccsc" /><path
         style="fill:#000000;fill-opacity:1;stroke:#000000;stroke-width:0;stroke-dasharray:none;stroke-opacity:1"
         d="m 277.55729,190.85749 -0.83052,1.62482 c 0,0 -1.12925,1.18101 -2.273,1.82377 -0.48205,0.2709 0.54374,0.81425 0.7431,1.24348 0.33998,0.732 0.76495,2.25484 0.76495,2.25484 0.93505,-0.9106 1.87543,-1.81851 2.46969,-2.90146 l 0.52455,-1.14399 c -0.13153,-1.00947 -0.56812,-1.98038 -1.39877,-2.90146 z"
         id="path11"
         sodipodi:nodetypes="ccsacccc" /></g></g></svg>
